<?xml version="1.0" encoding="utf-8"?>
<!-- Generator: Adobe Illustrator 25.2.0, SVG Export Plug-In . SVG Version: 6.00 Build 0)  -->
<svg version="1.1"
	 id="svg2176" inkscape:export-xdpi="92.389999" xmlns:cc="http://creativecommons.org/ns#" xmlns:dc="http://purl.org/dc/elements/1.1/" xmlns:inkscape="http://www.inkscape.org/namespaces/inkscape" xmlns:rdf="http://www.w3.org/1999/02/22-rdf-syntax-ns#" xmlns:sodipodi="http://sodipodi.sourceforge.net/DTD/sodipodi-0.dtd" xmlns:svg="http://www.w3.org/2000/svg"
	 xmlns="http://www.w3.org/2000/svg" xmlns:xlink="http://www.w3.org/1999/xlink" x="0px" y="0px" viewBox="0 0 266 266"
	 style="enable-background:new 0 0 266 266;" xml:space="preserve">
<style type="text/css">
	.st0{display:none;}
	.st1{display:inline;fill:#093251;stroke:#FFFFFF;stroke-width:9.998;stroke-miterlimit:15.1181;}
	.st2{display:inline;}
	.st3{fill:#FFFFFF;}
	.st4{clip-path:url(#SVGID_2_);}
	.st5{clip-path:url(#SVGID_4_);fill:#89B56B;}
</style>
<sodipodi:namedview  bordercolor="#666666" borderopacity="1.0" id="base" inkscape:current-layer="layer1" inkscape:cx="121.18379" inkscape:cy="143.93631" inkscape:document-units="mm" inkscape:pagecheckerboard="true" inkscape:pageopacity="0.0" inkscape:pageshadow="2" inkscape:window-height="1088" inkscape:window-maximized="1" inkscape:window-width="2048" inkscape:window-x="0" inkscape:window-y="27" inkscape:zoom="3.2460671" pagecolor="#ffffff" showgrid="false" units="px">
	</sodipodi:namedview>
<g id="layer1" transform="translate(0,-226.62082)" inkscape:groupmode="layer" inkscape:label="Layer 1" class="st0">
	<path id="path1484" inkscape:connector-curvature="0" class="st1" d="M35.6,231.6c0,0-30.6,0-30.6,30.6V457c0,0,0,30.6,30.6,30.6
		h194.7c0,0,30.6,0,30.6-30.6V262.3c0,0,0-30.6-30.6-30.6H35.6z"/>
	<g id="g876" class="st2">
		<path id="path1496" inkscape:connector-curvature="0" class="st3" d="M153.6,304.3H104l-4.1,23l44.8,0.1c22,0,28.6,8,28.4,21.3
			c-0.1,6.8-3,18.3-4.3,22c-3.4,9.9-10.4,21.3-36.5,21.2l-43.5,0l-4.1,23H134c17.5,0,24.9-2,32.8-5.7c17.4-8.1,27.8-25.3,32-47.7
			C204.9,328.1,197.2,304.3,153.6,304.3"/>
		<path id="path1504" inkscape:connector-curvature="0" class="st3" d="M82.5,348.1c-13,0-14.9,8.5-16.1,13.6
			c-1.6,6.7-2.1,9.4-2.1,9.4h50.8c13,0,14.9-8.5,16.1-13.6c1.6-6.7,2.1-9.4,2.1-9.4H82.5z"/>
	</g>
</g>
<g>
	<g>
		<defs>
			<rect id="SVGID_1_" x="-0.7" y="-2.1" width="266.1" height="266.1"/>
		</defs>
		<clipPath id="SVGID_2_">
			<use xlink:href="#SVGID_1_"  style="overflow:visible;"/>
		</clipPath>
		<g class="st4">
			<defs>
				<rect id="SVGID_3_" x="-0.7" y="-2.1" width="266.1" height="266.1"/>
			</defs>
			<clipPath id="SVGID_4_">
				<use xlink:href="#SVGID_3_"  style="overflow:visible;"/>
			</clipPath>
			<path class="st5" d="M239.6,76.4c0-2.6-0.7-4-3-5.4c-33.4-19.9-66.7-39.9-100.1-60c-1.9-1.1-3.2-1.3-5.1-0.1
				C97,31.2,62.5,51.3,27.9,71.5c-1.7,1-2.3,1.9-2.3,3.9c0.1,38.9,0.1,77.7,0,116.6c0,2.1,0.7,3.1,2.4,4.2
				c18.7,11,36.5,22.1,55.2,33.2c0.7,0.4,1.7,1.4,1.7,0.8v-2.8c0-39,0.9-77.9,0.8-116.9c0-2.2,0.9-3.6,3-4.8
				c14.1-8.1,28.3-16.3,42.2-24.7c1.9-1.1,3.3-1.1,5.2,0c13.6,8.4,27.4,16.6,41.1,24.8c1.6,0.9,2.4,1.9,2.4,3.9
				c-0.1,16.1-0.1,32.3,0,48.4c0,1.8-0.5,2.8-2,3.7c-14.2,8.4-28.3,16.8-42.4,25.3c-1.8,1.1-2.9,0.7-4.5-0.2
				c-8.2-4.9-16.4-9.8-24.6-14.6c-1-0.6-1.8-1.6-3.2-1.4c-0.1,0.2-0.2,0.4-0.2,0.6c0,22.2,0,44.5-0.1,66.7c0,1.9,0.9,2.7,2.3,3.5
				c8.4,4.9,16.9,9.9,25.3,14.9c1.8,1.1,3.1,1,4.9-0.1c34.2-20.3,68.3-40.5,102.5-60.7c1.4-0.8,2-1.6,2-3.3
				C239.5,185.7,239.5,85.7,239.6,76.4 M215.9,185.1c-25.5,15.1-50.9,30.3-76.3,45.4c-7.3,4.4-7.3,4.3-14.2-0.7
				c-0.9-0.6-1.3-1.2-1.3-2.3c0-6.7,0-13.3,0-20.6c2.3,1.5,4.3,2.4,5.9,3.8c2.2,1.9,3.9,1.5,6.3,0.1c20.3-12.3,40.7-24.4,61.2-36.5
				c2.3-1.3,3.3-2.7,3.3-5.5c-0.2-23.3-0.2-46.6,0-69.9c0-3-1.1-4.4-3.4-5.8c-20.3-12.2-40.5-24.4-60.6-36.7c-2-1.2-3.4-1.2-5.5,0
				C110.4,68.7,89.5,81,68.6,93.2c-2.3,1.3-3,2.8-3,5.4c0.1,30.5,0.2,61,0.2,91.5c0,1.2,0.5,2.5-0.6,3.9c-5.3-3.2-10.5-6.4-15.8-9.4
				c-1.8-1-2.4-2.2-2.4-4.2c0.1-31.1,0.1-62.2,0-93.2c0-1.9,0.5-3,2.2-4c27.7-16.2,55.3-32.5,83-48.9c1.6-0.9,2.6-0.8,4.2,0.1
				c26.7,16.2,53.4,32.4,80.2,48.5c2.1,1.2,2.7,2.6,2.6,4.8c-0.1,6.9,0,42.5-0.1,63.5c0,0.2,0,0.5,0,0.8c0,1.4,0,2.8,0,4.3
				c0,4.4,0,7.7,0,9.4c0,0.4,0,0.7,0,1c0,4.2,0,8.4,0.1,12.6C219.3,182.1,218.3,183.6,215.9,185.1"/>
			<path class="st5" d="M164.2,134c0-5.1-0.1-10.3,0-15.4c0.1-1.9-0.6-3-2.3-4c-8.8-5.2-17.6-10.5-26.3-15.9
				c-1.5-0.9-2.6-1.1-4.1-0.1c-9.1,5.5-18.2,10.8-27.4,16.1c-1.6,0.9-2.1,1.9-2.1,3.7c0.1,10.3,0.1,20.5,0,30.8
				c0,1.6,0.5,2.6,1.9,3.4c9.1,5.4,18.3,10.8,27.3,16.3c1.5,0.9,2.5,0.7,3.8-0.1c9-5.4,18-10.8,27-16.1c1.5-0.9,2.2-1.9,2.1-3.7
				C164.1,144,164.2,139,164.2,134 M138.2,140.2c1.2,2.4,2.2,5.2,3.4,8.1h-16.2c0.4-3,2-5.4,3.1-7.8c0.6-1.4,0.9-2.5-0.5-3.8
				c-4-3.7-4-8.9-0.4-12.4c3.2-3.1,8.4-3.2,11.6-0.1c3.5,3.4,3.5,8.8-0.4,12.5C137.6,137.9,137.5,138.8,138.2,140.2"/>
		</g>
	</g>
</g>
</svg>
