<?xml version="1.0" encoding="utf-8"?>
<!-- Generator: Adobe Illustrator 25.2.0, SVG Export Plug-In . SVG Version: 6.00 Build 0)  -->
<svg version="1.1"
	 id="svg2176" inkscape:export-xdpi="92.389999" xmlns:cc="http://creativecommons.org/ns#" xmlns:dc="http://purl.org/dc/elements/1.1/" xmlns:inkscape="http://www.inkscape.org/namespaces/inkscape" xmlns:rdf="http://www.w3.org/1999/02/22-rdf-syntax-ns#" xmlns:sodipodi="http://sodipodi.sourceforge.net/DTD/sodipodi-0.dtd" xmlns:svg="http://www.w3.org/2000/svg"
	 xmlns="http://www.w3.org/2000/svg" xmlns:xlink="http://www.w3.org/1999/xlink" x="0px" y="0px" viewBox="0 0 266 266"
	 style="enable-background:new 0 0 266 266;" xml:space="preserve">
<style type="text/css">
	.st0{display:none;}
	.st1{display:inline;fill:#008CE3;}
	.st2{display:inline;}
	.st3{fill:#FFFFFF;}
	.st4{clip-path:url(#SVGID_2_);}
	.st5{clip-path:url(#SVGID_4_);fill:#89B56B;}
</style>
<sodipodi:namedview  bordercolor="#666666" borderopacity="1.0" id="base" inkscape:current-layer="layer1" inkscape:cx="142.13222" inkscape:cy="145.16857" inkscape:document-units="mm" inkscape:pagecheckerboard="true" inkscape:pageopacity="0.0" inkscape:pageshadow="2" inkscape:window-height="1040" inkscape:window-maximized="1" inkscape:window-width="2048" inkscape:window-x="0" inkscape:window-y="34" inkscape:zoom="3.2460671" pagecolor="#ffffff" showgrid="false" units="px">
	</sodipodi:namedview>
<g id="layer1" transform="translate(0,-226.62082)" inkscape:groupmode="layer" inkscape:label="Layer 1" class="st0">
	<path id="path1484" inkscape:connector-curvature="0" class="st1" d="M35.6,231.6c0,0-30.6,0-30.6,30.6V457c0,0,0,30.6,30.6,30.6
		h194.7c0,0,30.6,0,30.6-30.6V262.3c0,0,0-30.6-30.6-30.6H35.6z"/>
	<g id="g876" class="st2">
		<path id="path1496" inkscape:connector-curvature="0" class="st3" d="M153.6,304.3H104l-4.1,23l44.8,0.1c22,0,28.6,8,28.4,21.3
			c-0.1,6.8-3,18.3-4.3,22c-3.4,9.9-10.4,21.3-36.5,21.2l-43.5,0l-4.1,23H134c17.5,0,24.9-2,32.8-5.7c17.4-8.1,27.8-25.3,32-47.7
			C204.9,328.1,197.2,304.3,153.6,304.3"/>
		<path id="path1504" inkscape:connector-curvature="0" class="st3" d="M82.5,348.1c-13,0-14.9,8.5-16.1,13.6
			c-1.6,6.7-2.1,9.4-2.1,9.4h50.8c13,0,14.9-8.5,16.1-13.6c1.6-6.7,2.1-9.4,2.1-9.4H82.5z"/>
	</g>
</g>
<g>
	<g>
		<defs>
			<rect id="SVGID_1_" x="-5" y="-8.3" width="276.7" height="276.7"/>
		</defs>
		<clipPath id="SVGID_2_">
			<use xlink:href="#SVGID_1_"  style="overflow:visible;"/>
		</clipPath>
		<g class="st4">
			<defs>
				<rect id="SVGID_3_" x="-5" y="-8.3" width="276.7" height="276.7"/>
			</defs>
			<clipPath id="SVGID_4_">
				<use xlink:href="#SVGID_3_"  style="overflow:visible;"/>
			</clipPath>
			<path class="st5" d="M244.8,73.3c0-2.7-0.8-4.2-3.1-5.6C207,47,172.4,26.2,137.7,5.3c-2-1.2-3.3-1.3-5.3-0.1
				c-35.8,21-71.7,42-107.6,63c-1.7,1-2.4,2-2.4,4c0.1,40.4,0.1,80.8,0,121.2c0,2.1,0.7,3.3,2.5,4.3c19.5,11.4,37.9,23,57.4,34.5
				c0.7,0.4,1.8,1.5,1.8,0.8V230c0-40.5,0.9-81,0.8-121.5c0-2.3,0.9-3.8,3.1-5c14.6-8.4,29.4-17,43.9-25.6c2-1.2,3.4-1.2,5.4,0
				c14.2,8.7,28.5,17.3,42.7,25.8c1.6,1,2.5,2,2.5,4.1c-0.1,16.8-0.1,33.6,0,50.3c0,1.8-0.5,2.9-2.1,3.9
				c-14.7,8.7-29.4,17.5-44.1,26.3c-1.8,1.1-3.1,0.7-4.7-0.3c-8.5-5.1-17-10.2-25.6-15.2c-1-0.6-1.9-1.6-3.3-1.4
				c-0.1,0.3-0.2,0.5-0.2,0.7c0,23.1,0,46.2-0.1,69.3c0,2,1,2.8,2.4,3.7c8.8,5.1,17.6,10.3,26.3,15.5c1.9,1.1,3.2,1,5.1-0.1
				c35.5-21.1,71-42.1,106.6-63.2c1.4-0.8,2.1-1.7,2.1-3.5C244.8,186.9,244.7,83,244.8,73.3 M220.2,186.3
				c-26.5,15.7-52.9,31.5-79.3,47.2c-7.6,4.6-7.6,4.5-14.8-0.7c-0.9-0.7-1.3-1.3-1.3-2.4c0-6.9,0-13.9,0-21.4c2.4,1.5,4.5,2.5,6.1,4
				c2.3,2,4.1,1.6,6.5,0.1c21.1-12.8,42.3-25.4,63.6-38c2.3-1.4,3.4-2.8,3.4-5.8c-0.2-24.2-0.2-48.5,0-72.7c0-3.1-1.1-4.6-3.6-6.1
				c-21.1-12.6-42.1-25.4-63-38.2c-2.1-1.3-3.6-1.2-5.7,0C110.5,65.3,88.8,78.1,67,90.8c-2.4,1.4-3.1,2.9-3.1,5.6
				c0.1,31.7,0.2,63.4,0.2,95.1c0,1.3,0.5,2.7-0.6,4c-5.5-3.3-10.9-6.7-16.4-9.7c-1.9-1.1-2.5-2.3-2.5-4.4c0.1-32.3,0.1-64.6,0-96.9
				c0-2,0.5-3.1,2.3-4.1c28.8-16.9,57.5-33.8,86.2-50.8c1.6-1,2.8-0.8,4.3,0.1c27.8,16.9,55.6,33.7,83.4,50.5c2.2,1.3,2.8,2.7,2.7,5
				c-0.1,7.2,0,44.1-0.1,66c0,0.3,0,0.5,0,0.8c0,1.5,0,3,0,4.4c0,4.6,0,8,0,9.8c0,0.4,0,0.7,0,1c0,4.4,0,8.7,0.1,13.1
				C223.8,183.2,222.7,184.8,220.2,186.3"/>
			<path class="st5" d="M166.4,133.2c0-5.3-0.1-10.7,0-16c0.1-2-0.7-3.1-2.3-4.1c-9.2-5.4-18.3-11-27.3-16.5
				c-1.5-0.9-2.7-1.1-4.3-0.1c-9.4,5.7-18.9,11.3-28.5,16.8c-1.6,0.9-2.2,2-2.2,3.8c0.1,10.7,0.1,21.4,0,32c0,1.7,0.5,2.7,2,3.6
				c9.5,5.6,19,11.2,28.4,17c1.5,0.9,2.6,0.7,4-0.1c9.3-5.6,18.7-11.2,28.1-16.8c1.6-0.9,2.2-1.9,2.2-3.8
				C166.3,143.6,166.4,138.4,166.4,133.2 M139.4,139.6c1.3,2.5,2.3,5.4,3.6,8.4h-16.9c0.4-3.1,2.1-5.6,3.2-8.1
				c0.7-1.5,0.9-2.6-0.6-4c-4.1-3.9-4.2-9.3-0.4-12.9c3.3-3.2,8.7-3.3,12.1-0.1c3.7,3.5,3.6,9.1-0.4,13
				C138.8,137.2,138.7,138.2,139.4,139.6"/>
		</g>
	</g>
</g>
</svg>
